<svg xmlns="http://www.w3.org/2000/svg" width="36" height="15" viewBox="0 0 36 15" fill="none">
  <g clip-path="url(#clip0_3012_7878)">
    <path d="M20.3227 0.0194271C20.3227 0.0194271 19.3538 -0.134703 18.0107 0.679984C17.174 1.18641 16.8658 1.12036 16.7336 0.988244C16.6676 0.878151 16.5135 0.900169 16.4694 1.01026C16.4034 1.16439 16.4474 1.38458 16.9318 1.69284C17.8566 2.26532 19.6841 2.52954 21.1814 2.28734C22.6787 2.04513 23.4053 2.06715 23.4053 2.06715C23.4053 2.06715 23.6034 1.67082 23.075 1.38458C22.5465 1.12036 21.0713 -0.0466286 20.3227 0.0194271Z" fill="white"/>
    <path d="M10.2174 4.33785C11.6707 3.30297 13.4101 2.51031 15.2817 2.55434C15.4138 2.55434 15.5459 2.55434 15.678 2.53232C16.1845 2.48829 17.7038 2.53232 19.6634 4.51399C22.0414 6.93604 23.7148 5.06446 23.8249 4.95437C23.913 4.86629 26.0708 3.89747 27.7002 5.3507C27.7222 5.37272 27.7222 5.37272 27.7442 5.39474C28.8011 6.34154 28.3607 8.081 26.9736 8.41128C24.2212 9.0278 20.0377 9.53423 15.9203 8.36724C14.0267 7.81678 12.4413 7.57457 11.1422 7.53054C9.49083 7.42044 8.87431 5.30666 10.2174 4.33785Z" fill="white"/>
    <path d="M3.45703 11.3423C3.45703 11.3423 7.97084 8.9863 15.281 9.51475C22.5691 10.0652 26.7967 11.2542 31.0683 9.51475C31.0683 9.51475 28.9325 11.9808 14.092 11.4964C14.092 11.4964 4.46989 11.1441 3.45703 11.3423Z" fill="white"/>
    <path d="M0 13.5219C0 13.5219 10.4368 12.9053 14.268 12.465C18.0993 12.0246 34.415 13.1916 35.604 13.5879C36.793 13.9842 23.5819 13.742 20.0369 14.5347C16.5139 15.3274 2.66425 14.931 0 13.5219Z" fill="white"/>
  </g>
  <defs>
    <clipPath id="clip0_3012_7878">
      <rect width="35.6921" height="14.9286" fill="white"/>
    </clipPath>
  </defs>
</svg>